<svg xmlns="http://www.w3.org/2000/svg" viewBox="0 0 900 270">
  <path d="M48.9,171.3L0,147.6l23.3-47.5l33.7,16.5l36-73.5L118.3,0l48.9,23.7l-23.3,47.5L110.2,54.7l-36,73.5Z" fill="#2DC56E"/>
  <path d="M197.6,271h-50V142.7h50V271Zm0-159.8h-50V60.8h50v50.4Zm59.6,159.8h-50V60.8h50V271Zm168.3,0h-50V142.7h52c28.1,0,51-22.8,51-50.9v-31h50v31c0,56-45.5,101.5-101.5,101.5h-1.5V271Zm248.7,0h-48.2l-77.3-78.2V271h-50V60.8h50v78.2l77.3-78.2h48.2l-79.1,79.9,79.1,80.3Zm85.2,0h-50V142.7h50c28.1,0,51-22.8,51-50.9v-31h50v31c0,56-45.5,101.5-101.5,101.5h-1.5V271Zm140.2,0h-50V60.8h50v78.2l77.3-78.2h48.2l-79.1,79.9,79.1,80.3h-48.2l-77.3-78.2V271Z" fill="#1464F6"/>
</svg>
